<svg width="1920" height="623" viewBox="0 0 1920 623" fill="none" xmlns="http://www.w3.org/2000/svg">
<path d="M1920 555V623H0V0C0 0 107.412 11.719 174 29.5C246.003 48.7271 285.865 63.6247 352.5 97C423.832 132.728 457.311 164.213 524 208C587.921 249.97 611.744 302.938 687 316.5C748.231 327.534 782.784 300.383 844.5 292.5C983.16 274.789 1062.36 253.031 1201.5 266.5C1309.84 276.988 1371.71 285.339 1476 316.5C1587.83 349.914 1651.54 376.312 1753 434C1823.01 473.807 1920 555 1920 555Z" fill="#FF9900"/>
</svg>
