
    <svg
      width="208"
      height="44"
      viewBox="0 0 208 44"
      fill="none"
      xmlns="http://www.w3.org/2000/svg"
    >
      <path
        fill-rule="evenodd"
        clip-rule="evenodd"
        d="M20.1665 8.89191C16.1423 7.01825 10.0465 6.02275 4.33934 10.6867C4.12908 10.8587 3.95965 11.0752 3.84329 11.3206C3.72693 11.566 3.66655 11.8342 3.6665 12.1057V34.8336C3.66656 35.1806 3.76507 35.5204 3.95061 35.8136C4.13614 36.1068 4.40108 36.3414 4.71462 36.49C5.02816 36.6386 5.37744 36.6952 5.72187 36.6531C6.06629 36.6111 6.39172 36.4722 6.66034 36.2526C11.6763 32.1532 17.1727 33.8509 20.1665 35.7851V8.89191ZM23.8332 8.89191V35.7851C26.827 33.8491 32.3215 32.1532 37.3393 36.2526C37.608 36.4722 37.9334 36.6111 38.2778 36.6531C38.6222 36.6952 38.9715 36.6386 39.2851 36.49C39.5986 36.3414 39.8635 36.1068 40.0491 35.8136C40.2346 35.5204 40.3331 35.1806 40.3332 34.8336V12.1057C40.3331 11.8342 40.2727 11.566 40.1564 11.3206C40.04 11.0752 39.8706 10.8587 39.6603 10.6867C33.9532 6.02275 27.8573 7.02008 23.8332 8.89191Z"
        fill="#FF9900"
      />
      <path
        d="M65.4355 11.7891H71.002V20.1387H78.8535V11.7891H84.4199V33H78.8535V24.6357H71.002V33H65.4355V11.7891ZM93.291 11.7891H108.438V16.2861H98.8574V20.1387H107.661V24.6357H98.8574V28.5029H108.394V33H93.291V11.7891ZM117.367 11.7891H122.934V28.5029H131.591V33H117.367V11.7891ZM140.008 11.7891H149.031C150.594 11.7891 151.966 12.0967 153.147 12.7119C154.339 13.3271 155.257 14.2012 155.901 15.334C156.556 16.4668 156.883 17.7705 156.883 19.2451C156.883 20.7393 156.546 22.043 155.872 23.1562C155.208 24.2598 154.271 25.1143 153.06 25.7197C151.849 26.3252 150.442 26.6279 148.841 26.6279H143.377V22.2627H147.757C148.45 22.2627 149.046 22.1406 149.544 21.8965C150.042 21.6523 150.418 21.3057 150.672 20.8564C150.936 20.4072 151.067 19.8701 151.067 19.2451C151.067 18.6201 150.936 18.083 150.672 17.6338C150.418 17.1846 150.042 16.8428 149.544 16.6084C149.056 16.374 148.46 16.2568 147.757 16.2568H145.574V33H140.008V11.7891ZM165.08 11.7891H180.227V16.2861H170.646V20.1387H179.45V24.6357H170.646V28.5029H180.183V33H165.08V11.7891ZM189.156 11.7891H198.18C199.762 11.7891 201.139 12.0771 202.311 12.6533C203.492 13.2295 204.405 14.0596 205.05 15.1436C205.704 16.2178 206.031 17.4873 206.031 18.9521C206.031 20.4268 205.699 21.6914 205.035 22.7461C204.381 23.791 203.448 24.582 202.237 25.1191C201.026 25.6562 199.61 25.9248 197.989 25.9248H192.496V21.5596H196.905C197.638 21.5596 198.243 21.4717 198.722 21.2959C199.2 21.1104 199.566 20.8271 199.82 20.4463C200.084 20.0557 200.216 19.5576 200.216 18.9521C200.216 18.3369 200.084 17.834 199.82 17.4434C199.566 17.043 199.195 16.7451 198.707 16.5498C198.219 16.3545 197.618 16.2568 196.905 16.2568H194.723V33H189.156V11.7891ZM206.734 33H200.655L195.499 23.2881H201.446L206.734 33Z"
        fill="#FF9900"
      />
    </svg>

