<svg width="15" height="15" viewBox="0 0 15 15" fill="none" xmlns="http://www.w3.org/2000/svg">
<path d="M3.18359 7.4873C2.5918 7.48145 2.08496 7.34375 1.66309 7.07422C1.24707 6.79883 0.927734 6.41504 0.705078 5.92285C0.488281 5.4248 0.379883 4.85059 0.379883 4.2002C0.379883 3.55566 0.491211 2.98438 0.713867 2.48633C0.942383 1.98828 1.26758 1.60156 1.68945 1.32617C2.11133 1.05078 2.60938 0.913086 3.18359 0.913086C3.78711 0.913086 4.2998 1.05078 4.72168 1.32617C5.14355 1.5957 5.45996 1.97949 5.6709 2.47754C5.88184 2.96973 5.9873 3.54395 5.9873 4.2002C5.9873 4.85645 5.87891 5.43066 5.66211 5.92285C5.44531 6.41504 5.12598 6.79883 4.7041 7.07422C4.28809 7.34375 3.78125 7.48145 3.18359 7.4873ZM3.18359 6.07227C3.44727 6.07227 3.66699 5.99609 3.84277 5.84375C4.01855 5.68555 4.15039 5.46875 4.23828 5.19336C4.32617 4.91211 4.37012 4.58105 4.37012 4.2002C4.37012 3.81348 4.32617 3.47949 4.23828 3.19824C4.15625 2.91699 4.02734 2.7002 3.85156 2.54785C3.67578 2.38965 3.45312 2.31641 3.18359 2.32812C2.9375 2.32227 2.72363 2.39844 2.54199 2.55664C2.36621 2.71484 2.23438 2.93457 2.14648 3.21582C2.05859 3.49707 2.01465 3.8252 2.01465 4.2002C2.01465 4.5752 2.05859 4.90332 2.14648 5.18457C2.23438 5.46582 2.36621 5.68555 2.54199 5.84375C2.72363 5.99609 2.9375 6.07227 3.18359 6.07227ZM11.5068 14.3428C10.915 14.3369 10.4053 14.1992 9.97754 13.9297C9.55566 13.6543 9.23926 13.2705 9.02832 12.7783C8.81738 12.2861 8.71191 11.7148 8.71191 11.0645C8.71191 10.4141 8.82031 9.83984 9.03711 9.3418C9.25977 8.84375 9.58203 8.45703 10.0039 8.18164C10.4258 7.90625 10.9268 7.76855 11.5068 7.76855C12.0986 7.76855 12.6055 7.90625 13.0273 8.18164C13.4551 8.45117 13.7744 8.83496 13.9854 9.33301C14.2021 9.83105 14.3105 10.4082 14.3105 11.0645C14.3105 11.7148 14.1992 12.2861 13.9766 12.7783C13.7598 13.2705 13.4404 13.6543 13.0186 13.9297C12.5967 14.1992 12.0928 14.3369 11.5068 14.3428ZM11.5068 12.9277C11.7705 12.9277 11.9902 12.8516 12.166 12.6992C12.3418 12.5469 12.4707 12.333 12.5527 12.0576C12.6348 11.7764 12.6758 11.4453 12.6758 11.0645C12.6758 10.6719 12.6348 10.335 12.5527 10.0537C12.4707 9.77246 12.3447 9.55566 12.1748 9.40332C12.0049 9.24512 11.7822 9.17188 11.5068 9.18359C11.2549 9.18359 11.041 9.2627 10.8652 9.4209C10.6895 9.5791 10.5547 9.79883 10.4609 10.0801C10.3672 10.3613 10.3203 10.6895 10.3203 11.0645C10.3203 11.4453 10.3672 11.7764 10.4609 12.0576C10.5547 12.333 10.6865 12.5469 10.8564 12.6992C11.0322 12.8516 11.249 12.9277 11.5068 12.9277ZM10.7598 1.27344H12.5527L3.79883 14H2.00586L10.7598 1.27344Z" fill="black"/>
</svg>
